<svg version="1.1" id="Layer_1" xmlns="http://www.w3.org/2000/svg" xmlns:xlink="http://www.w3.org/1999/xlink" x="0px" y="0px" width="100%" viewBox="0 0 482 518" enable-background="new 0 0 482 518" xml:space="preserve">
<path fill="#000000" opacity="1.000000" stroke="none" d="M260.000000,519.000000 C173.333359,519.000000 87.166710,519.000000 1.000046,519.000000 C1.000031,346.333405 1.000031,173.666794 1.000015,1.000139 C161.666565,1.000093 322.333130,1.000093 482.999756,1.000046 C482.999847,173.666519 482.999847,346.333038 482.999939,518.999756 C408.833344,519.000000 334.666656,519.000000 260.000000,519.000000 M315.871857,81.298721 C314.932831,80.845680 313.993774,80.392647 313.001465,80.000221 C310.849823,78.238625 308.875916,77.191917 306.525391,76.038193 C305.652466,75.271957 305.345642,75.094337 305.014374,74.997635 C302.129028,73.565575 299.528503,72.857620 296.558960,72.026573 C293.544678,70.881737 291.257507,70.520744 288.575287,70.032600 C285.069153,67.894386 282.126556,66.829803 279.689087,65.066803 C276.590881,62.825882 270.934235,63.588329 268.943542,67.519516 C265.757385,68.810066 264.394684,69.013084 262.270752,69.972443 C259.088104,70.977112 252.532394,74.402634 245.976700,77.828156 C238.863327,81.665253 233.881561,86.748589 228.899796,91.831917 C222.556992,98.366707 221.864914,99.597595 219.284561,103.198387 C215.798615,109.526169 213.380692,113.049362 212.024216,116.507759 C211.001022,119.503281 210.002441,122.498039 209.368576,123.002625 C207.224838,133.031021 206.009186,138.894684 205.959641,145.777832 C204.866272,147.630981 202.898376,151.714828 198.298935,160.176468 C188.409454,183.667511 181.995697,206.439667 176.973343,230.712021 C175.470352,242.442459 174.976532,247.622467 174.140976,249.341003 C173.756943,254.212875 173.534393,259.105011 172.927048,263.948853 C171.603683,269.495270 170.831329,272.321899 169.954147,272.521271 C156.843704,278.364868 143.744949,284.235321 130.587448,289.970978 C129.945312,290.250916 128.788330,289.349854 128.184433,288.282623 C131.504547,281.678070 130.635757,273.849915 125.940430,268.203674 C124.590523,265.132690 123.240608,262.061676 122.013664,258.193085 C119.402153,250.039627 118.096390,245.962906 114.003510,235.066696 C111.983505,223.173294 111.003456,216.247543 106.719994,210.205383 C104.750763,210.140839 103.790115,209.972107 97.995728,216.034698 C98.002037,218.732773 98.089920,230.552460 98.934151,231.919296 C98.144455,235.295471 96.784851,237.797073 94.766479,238.063995 C86.991005,239.092209 84.883202,242.279800 86.907471,249.504929 C85.593636,253.827866 85.378525,255.905289 84.085190,263.540802 C84.661240,263.915527 84.906113,264.041565 84.915092,264.887268 C85.611824,268.983521 85.937813,269.113708 85.981468,269.871490 C88.385330,279.078278 90.837151,283.582642 96.059006,286.606201 C97.352211,287.645660 97.660004,287.746979 98.586113,288.104736 C101.000107,290.690857 102.111679,292.580994 103.830070,293.942963 C103.637764,299.278290 104.064476,301.357758 106.945869,311.035706 C107.656189,311.969757 110.009224,313.721375 111.256035,314.846130 C115.440941,315.575836 117.143806,314.923584 123.871239,312.346680 C137.046448,306.472076 145.128342,302.211426 149.913773,300.042755 C162.637802,292.687408 169.840363,288.993469 172.989517,303.576477 C177.570724,325.239258 179.960403,336.854462 191.989807,362.867188 C199.320786,372.186035 203.639771,377.170654 213.251312,388.748627 C219.619934,393.115570 223.908401,396.069366 225.787903,357.971252 C238.302200,363.157288 241.923477,405.625336 241.987183,406.811829 C242.054169,408.919525 241.952286,428.607208 241.415482,434.014404 C240.915421,438.446686 240.869720,439.178497 239.951172,446.626862 C238.040497,452.528076 235.251190,461.161469 226.981079,471.325409 C220.783249,487.074921 219.191299,495.347687 220.908920,505.808380 C229.331543,512.278076 234.721313,513.386169 263.804962,512.814453 C277.296814,506.419250 275.715637,498.271423 260.879059,462.166229 C258.579773,445.139465 257.984375,437.096100 257.881531,430.375519 C258.865082,409.074005 260.951965,409.580353 274.053223,411.140350 C310.699005,408.997345 314.044220,408.936768 313.637207,428.678284 C310.854828,452.153381 309.326111,459.061859 308.227783,460.169495 C299.611694,474.280273 300.023102,483.893372 299.891327,490.771515 C300.300842,504.051453 306.448669,507.721893 321.034943,512.739502 C338.448730,512.314331 356.976471,497.086945 334.032501,460.326294 C332.566162,452.769501 330.547211,426.030731 329.983643,414.099945 C330.840637,402.982758 388.580414,332.890411 389.258301,330.257751 C393.316345,306.751404 394.038574,302.123688 394.976501,283.294373 C401.143372,284.271576 412.294495,290.791199 427.321960,296.763458 C430.324646,300.801422 428.269867,305.205566 425.898193,312.918884 C418.289124,327.121613 409.772034,331.904755 398.497131,335.928040 C391.199982,345.319305 388.976624,352.679413 388.940247,354.648895 C389.031158,355.560791 388.972595,361.894287 390.292145,363.469055 C395.530396,375.111816 407.703613,375.169098 406.985443,377.770721 C410.853241,385.356995 415.447144,383.901794 421.125336,380.004028 C437.544708,359.076904 443.637238,348.642395 444.018829,339.283997 C445.845917,322.840912 447.864868,297.071411 438.468719,283.964417 C416.170166,275.333435 395.434357,265.858154 391.984467,245.153763 C384.744751,217.025909 380.763184,200.263550 369.025085,171.257034 C357.346161,151.789124 349.790741,140.240906 344.063873,120.902252 C332.772583,94.953293 321.075745,85.951439 316.010101,82.000206 C316.010101,82.000206 316.057495,81.925697 315.871857,81.298721z"/>
<path fill="#C7C7C6" opacity="1.000000" stroke="none" d="M394.105164,263.962952 C394.548218,264.594666 394.991272,265.226410 395.705994,266.353760 C392.036774,273.427155 391.035095,275.835754 388.191437,282.375061 C387.752899,283.414246 386.773438,284.837952 387.129974,285.499054 C387.527863,291.710754 384.889557,294.671936 370.605225,312.892029 C368.128815,316.089630 364.342010,318.956848 363.463806,322.540955 C359.043854,330.145416 356.099304,333.425720 352.019562,338.363556 C344.691650,346.984711 340.249908,350.236969 314.351715,357.094727 C305.545471,359.134796 296.231171,362.816498 281.280853,364.691803 C271.266479,365.327972 263.182007,366.199127 255.153015,365.839722 C240.856689,363.822968 228.381790,362.257141 219.329849,359.893494 C206.552078,357.501343 204.716293,363.356262 212.955246,371.680298 C212.955246,376.111847 212.955246,382.129852 209.850082,384.488800 C198.140442,363.678894 191.014313,348.662720 191.279022,346.695007 C191.553024,335.864105 197.306335,332.148163 207.767929,346.316895 C220.075378,350.722290 225.787903,357.971252 264.035309,359.862976 C272.466583,356.205322 285.082611,356.014526 302.807495,352.163910 C312.170563,351.424530 327.823608,345.682770 340.249908,350.236969 C347.119415,340.223663 350.783081,331.519287 358.368835,313.994751 C365.531952,308.075714 371.492279,299.084412 382.993774,287.276764 C390.033813,271.416565 383.463837,285.058868 394.105164,263.962952z"/>
<path fill="#DFC053" opacity="1.000000" stroke="none" d="M267.891479,68.145477 C269.339935,67.508652 273.066254,69.006645 283.153534,71.332321 C295.448303,81.358574 298.946533,88.636177 302.824707,93.335831 C303.593567,97.218079 300.501465,99.064056 295.355896,96.921097 C286.292480,90.649940 270.622375,90.958954 246.981705,107.219238 C245.746765,109.032761 244.995987,108.582336 246.252991,101.846809 C250.562927,94.015236 255.032455,84.687859 259.397583,78.064468 C265.852386,72.693504 268.814697,69.769836 267.891479,68.145477z"/>
<path fill="#ECD23A" opacity="1.000000" stroke="none" d="M313.067627,476.947540 C312.638672,477.762146 310.208252,479.509430 312.838257,481.277283 C314.069275,483.614563 313.840759,483.970245 312.589325,484.069672 C307.718750,484.302826 306.827362,491.296570 301.069458,494.709961 C300.083435,489.855865 300.450073,483.355042 302.175354,479.258240 C309.361633,463.168457 313.167542,468.572083 313.006653,469.349518 C313.027588,472.058014 313.036896,475.885681 313.067627,476.947540z"/>
<path fill="#DFC223" opacity="1.000000" stroke="none" d="M267.891479,68.145477 C268.814697,69.769836 262.805298,75.364563 255.012512,84.982025 C250.562927,94.015236 246.252991,101.846809 243.991226,101.994156 C239.726074,129.234436 231.456436,130.914658 218.359238,134.027802 C213.479752,141.348343 211.003418,144.988525 210.993484,145.000412 C215.853592,122.256989 217.990356,112.999924 221.036102,104.415070 C223.918015,96.915237 239.288605,81.663376 260.011230,71.565826 C262.643433,71.135803 259.066681,77.735046 255.012512,84.982025z"/>
<path fill="#C0A126" opacity="1.000000" stroke="none" d="M321.090210,85.942352 C323.578766,91.021461 326.643372,96.641159 309.054260,105.663872 C308.017059,102.614517 302.931244,93.035019 298.946533,88.636177 C283.428009,71.061569 288.166595,69.960564 296.175903,71.958786 C305.069183,74.933228 313.051270,79.938675 321.054993,85.928268 C321.054993,85.928268 321.075745,85.951439 321.090210,85.942352z"/>
<path fill="#DED8C8" opacity="1.000000" stroke="none" d="M349.921326,140.540588 C344.736023,151.996796 340.287018,174.375183 313.484375,180.077438 C310.122314,182.005371 321.922302,191.441803 317.990479,195.908173 C312.012207,189.422806 296.193268,188.357758 287.102875,193.807526 C289.294189,190.834930 297.880035,182.956177 295.672272,180.330139 C278.450836,187.204498 273.561249,195.496887 270.054688,195.564148 C265.151123,188.524734 267.137207,183.097733 281.525269,180.853439 C284.413208,178.000458 316.410950,175.902649 336.984863,163.623535 C340.501282,154.939133 343.147980,149.946625 348.806061,137.934250 C349.134308,138.703125 349.462524,139.472015 349.921326,140.540588z"/>
<path fill="#E0E0DA" opacity="1.000000" stroke="none" d="M350.051880,140.840256 C344.974030,145.531616 344.736023,151.996796 344.134216,158.130020 C339.741577,107.069405 332.772583,94.953293 321.075745,85.951439 C332.772583,94.953293 339.741577,107.069405 344.063873,120.902252 C345.749542,126.297050 347.290497,131.737076 348.851715,137.545380 C346.920929,141.938797 345.041168,145.945877 350.051880,140.840256z"/>
</svg>
